<?xml version="1.0" encoding="utf-8"?>
<!-- Generator: Adobe Illustrator 27.5.0, SVG Export Plug-In . SVG Version: 6.00 Build 0)  -->
<svg version="1.1" xmlns="http://www.w3.org/2000/svg" xmlns:xlink="http://www.w3.org/1999/xlink" x="0px" y="0px"
	 viewBox="0 0 500 500" style="enable-background:new 0 0 500 500;" xml:space="preserve">
<g id="BACKGROUND">
	<rect style="fill:#FFFFFF;" width="500" height="500"/>
</g>
<g id="OBJECTS">
	<path style="fill:#D8DCE5;" d="M88.427,359.609c0,0-24.096-32.404-15.78-75.6c8.89-46.176,66.49-52.489,94.943-97.035
		c28.453-44.547,76.065-61.699,125.568-53.591c60.832,9.963,67.957,92.216,89.884,113.787c21.927,21.57,59.212,76.997,15.84,112.44
		H88.427z"/>
	<path style="fill:#A6AAAD;" d="M397.51,360.11H89.45c-0.414,0-0.803-0.199-1.045-0.536l-0.334-0.464h311.415l-0.679,0.544
		C398.439,359.949,397.981,360.11,397.51,360.11z"/>
	<g>
		<path style="fill:#F0F0F0;" d="M228.758,139.924H70.343c-2.761,0-5,2.239-5,5v233.257c0,2.761,2.239,5,5,5h158.414
			c2.761,0,5-2.239,5-5V144.924C233.758,142.162,231.519,139.924,228.758,139.924z"/>
		<rect x="74.053" y="181.409" style="fill:#FFFFFF;" width="93.244" height="135.57"/>
		<g>
			<path style="fill:#6695FF;" d="M228.758,139.924H70.343c-2.761,0-5,2.239-5,5v28.771h168.414v-28.771
				C233.758,142.162,231.519,139.924,228.758,139.924z"/>
			<g>
				<text transform="matrix(1 0 0 1 83.983 210.0321)" style="fill:#6695FF; font-family:'Kanit-Bold'; font-size:26.0768px;">T</text>
				<rect x="102.424" y="194.765" style="fill:#455A64;" width="55.045" height="2.802"/>
				<rect x="102.424" y="200.518" style="fill:#455A64;" width="37.081" height="2.802"/>
				<rect x="102.424" y="206.551" style="fill:#455A64;" width="55.045" height="2.802"/>
				<rect x="83.883" y="212.607" style="fill:#455A64;" width="73.585" height="2.802"/>
				<rect x="83.883" y="218.568" style="fill:#455A64;" width="62.772" height="2.802"/>
				<rect x="83.883" y="224.53" style="fill:#455A64;" width="68.686" height="2.802"/>
				<rect x="83.883" y="267.266" style="fill:#455A64;" width="73.585" height="2.802"/>
				<rect x="83.883" y="273.228" style="fill:#455A64;" width="62.772" height="2.802"/>
				<rect x="83.883" y="279.19" style="fill:#455A64;" width="68.686" height="2.802"/>
				<rect x="83.883" y="290.859" style="fill:#455A64;" width="62.772" height="2.802"/>
				<rect x="83.883" y="296.821" style="fill:#455A64;" width="68.686" height="2.802"/>
				<rect x="83.976" y="231.476" style="fill:#6695FF;" width="73.493" height="31.132"/>
			</g>
			<rect x="173.307" y="181.409" style="fill:#6695FF;" width="53.773" height="13.356"/>
			<rect x="173.307" y="280.908" style="fill:#6695FF;" width="53.773" height="13.356"/>
			<rect x="74.053" y="322.564" style="fill:#6695FF;" width="153.027" height="13.356"/>
			<rect x="173.307" y="197.643" style="fill:#AFAFAF;" width="53.773" height="79.387"/>
			<path style="fill:#AFAFAF;" d="M218.177,372.329H82.956c-4.917,0-8.903-3.986-8.903-8.903V335.92H227.08v27.507
				C227.08,368.343,223.094,372.329,218.177,372.329z"/>
			<text transform="matrix(1 0 0 1 78.4192 162.3955)" style="fill:#FFFFFF; font-family:'Kanit-Bold'; font-size:14.306px;">BLOG</text>
		</g>
	</g>
	<g>
		<g>
			<path style="fill:#DD8762;" d="M423.484,230.131v-2.695c1.211-0.259,3.486-0.876,3.194-1.809
				c-0.396-1.264-3.167-0.929-3.167-0.929s3.631-0.411,3.117-1.918c-0.362-1.061-2.127-1.272-3.144-1.305v-0.343
				c2.464-0.429,3.214-1.928,2.785-3c-0.429-1.071-2.785-0.857-2.785-0.857s-3,12.213-3,12.535s1.714,4.393,3,4.178
				c1.285-0.214,3.964-1.928,2.899-3.428C425.318,229.059,423.484,230.131,423.484,230.131z"/>
			<g>
				<path style="fill:#455A64;" d="M407.767,243.783c-0.007,0.346,0.271,0.63,0.617,0.63h13.983c0.777,0,1.412-0.62,1.43-1.397
					l0.316-34.726c0.006-0.687-0.334-1.33-0.906-1.711l0,0c-0.12-0.08-0.263-0.115-0.406-0.1l-13.774,1.428
					c-0.31,0.032-0.547,0.29-0.553,0.602L407.767,243.783z"/>
				<path style="fill:#9FC2FF;" d="M420.865,209.761v31.365c0,0.352-0.286,0.638-0.638,0.638l-9.843-0.127
					c-0.352,0-0.638-0.286-0.638-0.638l0.319-30.476c0-0.326,0.245-0.599,0.569-0.634l9.524-0.762
					C420.535,209.086,420.865,209.381,420.865,209.761z"/>
				<path style="fill:#263238;" d="M423.207,206.578c-0.12-0.08-0.263-0.115-0.406-0.1l-0.131,0.014l-0.397,37.921h0.094
					c0.777,0,1.412-0.62,1.43-1.397l0.316-34.726C424.119,207.602,423.778,206.959,423.207,206.578z"/>
				<path style="fill:#263238;" d="M410.839,208.819c0,0.272-0.176,0.492-0.394,0.492c-0.218,0-0.394-0.22-0.394-0.492
					c0-0.272,0.176-0.492,0.394-0.492C410.662,208.327,410.839,208.548,410.839,208.819z"/>
				<path style="fill:#263238;" d="M412.562,208.979c-0.193,0-0.357-0.148-0.374-0.344c-0.017-0.206,0.137-0.387,0.343-0.404
					l5.51-0.457c0.223-0.015,0.388,0.137,0.405,0.343c0.017,0.206-0.137,0.387-0.343,0.404l-5.51,0.457
					C412.582,208.978,412.572,208.979,412.562,208.979z"/>
			</g>
			<path style="fill:#FFBE9D;" d="M410.826,244.408c1.679-3.26,1.139-6.513,1.196-8.153c0.06-1.711,3.161-5.435,3.564-8.958
				c0.403-3.523-1.711-5.033-2.919-2.718c-1.208,2.315-4.429,6.14-4.429,6.14V220.25c0,0-0.973,1.095-1.778,1.699
				c-0.805,0.604-4.485,4.065-4.381,9.172c0.103,5.108-0.987,15.198-1.893,17.916c-0.906,2.718-2.516,4.63-2.516,4.63l8.983,4.429
				c0,0,3.901-1.812,5.369-3.12c1.469-1.308,2.155-6.643,2.155-6.643l1.46-3.925H410.826z"/>
			<polygon style="fill:#DD8762;" points="415.636,244.408 410.826,244.408 414.867,246.476 			"/>
			<g>
				<path style="fill:#DD8762;" d="M405.915,236.508c-0.153-1.087,0.064-2.172,0.442-3.181c0.392-1.001,0.997-1.96,1.88-2.609
					c-0.409,1.01-0.822,1.918-1.182,2.88C406.677,234.549,406.347,235.511,405.915,236.508z"/>
			</g>
			<g>
				<path style="fill:#DD8762;" d="M412.052,237.989c0.544,1.81,0.288,3.793-0.327,5.572c-0.345,0.882-0.743,1.749-1.296,2.517
					c-0.517,0.789-1.171,1.477-1.868,2.094c0.476-0.808,0.951-1.587,1.366-2.395c0.431-0.798,0.776-1.631,1.093-2.47
					c0.312-0.843,0.54-1.712,0.722-2.596C411.908,239.824,412.043,238.922,412.052,237.989z"/>
			</g>
		</g>
		<path style="fill:#3362CC;" d="M410.445,258.695l-11.227-6.089c-0.75-0.407-1.685-0.177-2.162,0.53l-15.964,23.703
			c-1.368,2.131-1.998,2.406-4.116,1.017l-16.43-8.363c-10.005-4.638-16.691-9.192-26.441-9.189l-11.722,0.004
			c0,0-0.525-0.018-1.465-0.001c-19.173,0.356-35.958,12.982-41.849,31.232l-20.68,64.07h17.839l21.739-62.106l-0.588,62.106h51.669
			v-67.131l13.378,5.882c8.423,4.394,21.759,9.671,29.023-3.062c0.315-0.553,0.628-1.106,0.975-1.64l18.616-28.606
			C411.57,260.243,411.295,259.156,410.445,258.695z"/>
		<path style="fill:#EB996E;" d="M306.973,242.124v21.569h0.031c0.329,8.226,7.083,14.799,15.39,14.799
			c8.307,0,15.061-6.573,15.39-14.799h0.031v-21.569H306.973z"/>
		<path style="fill:#263238;" d="M286.082,218.381c0,0-6.439-6.932-6.439-25.396s15.885-30.997,30.477-32.188
			c14.593-1.191,16.975-6.85,20.251-4.169s-6.364,8.636-6.364,8.636s27.508-10.423,30.784-6.85
			c3.276,3.574-10.721,8.636-10.721,8.636s16.762,4.276,19.74,13.21c2.978,8.934-4.85,9.232-4.85,9.232s5.526,14.271-1.404,33.652
			c-7.544,21.099-55.189,23.432-56.083,22.837C300.58,245.387,286.082,218.381,286.082,218.381z"/>
		<path style="fill:#FFBE9D;" d="M354.052,214.014c-0.026,0-0.051,0.002-0.077,0.004c-0.053,0.96-0.095,1.555-0.095,1.555
			l-1.248,10.027c-0.18,1.45-2.124,1.825-2.81,0.536c-1.691-3.175-3.28-8.918-0.913-17.894c-1.342-2.169-2.334-4.553-2.901-7.073
			l-0.342-1.522c-6.753,1.749-7.072,0.029-11.567-2.009c-0.034-0.015-0.075,0.023-0.047,0.048c1.679,1.507,6.222,6.057,2.975,8.574
			c-3.581,2.776-15.19-6.634-17.457-8.212c-0.091-0.063-0.208,0.027-0.17,0.13c0.529,1.422,2.167,6.353-0.212,7.191
			c-3.65,1.286-10.322-8.801-12.219-11.817c-0.101-0.16-0.346-0.064-0.312,0.122c0.366,1.99,0.884,6.476-1.625,7.574
			c-2.349,1.028-4.909-3.885-6.149-6.69c-0.2-0.453-0.856-0.34-0.915,0.152c-0.505,4.26-2.042,8.35-3.64,11.652
			c3.125,10.063,1.434,16.382-0.372,19.773c-0.687,1.29-2.63,0.914-2.81-0.536l-1.248-10.027c0,0-0.042-0.594-0.095-1.551
			c-6.368,0.086-11.505,5.267-11.505,11.655c0,6.442,5.222,11.664,11.664,11.664c0.144,0,0.283-0.016,0.425-0.021
			c2.627,15.073,15.763,27.535,31.587,27.535c15.826,0,28.965-12.464,31.591-27.538c0.163,0.007,0.323,0.025,0.488,0.025
			c6.442,0,11.664-5.222,11.664-11.664C365.716,219.236,360.494,214.014,354.052,214.014z"/>
		<g>
			<g>
				<path style="fill:#263238;" d="M311.394,240.544c1.928,1.812,3.882,3.411,6.096,4.5c1.089,0.58,2.267,0.929,3.475,1.181
					c1.22,0.285,2.476,0.24,3.818,0.27c-1.2,0.538-2.56,0.917-3.936,0.819c-1.371-0.043-2.751-0.389-3.978-1.012
					c-1.225-0.626-2.34-1.442-3.267-2.425C312.677,242.899,311.884,241.791,311.394,240.544z"/>
			</g>
			<g>
				<g>
					<path style="fill:#263238;" d="M307.851,222.339c0,1.508-1.223,2.731-2.731,2.731c-1.508,0-2.731-1.223-2.731-2.731
						c0-1.508,1.223-2.731,2.731-2.731C306.628,219.608,307.851,220.831,307.851,222.339z"/>
					<path style="fill:#263238;" d="M302.402,219.608c-0.122-1.154,0.608-2.325,1.598-3.042c1.014-0.71,2.235-1.006,3.387-1.053
						c0.57-0.048,1.219,0.027,1.817,0.173c0.602,0.181,1.183,0.452,1.673,0.842c0.968,0.787,1.576,1.93,1.565,3.08
						c-0.747-0.847-1.548-1.442-2.367-1.807c-0.837-0.347-1.669-0.465-2.622-0.424c-0.965,0.024-1.892,0.134-2.754,0.445
						C303.849,218.138,303.027,218.675,302.402,219.608z"/>
					<path style="fill:#263238;" d="M301.017,213.121c1.82-0.332,5.471-0.827,10.61-0.709c0.615,0.014,1.022-0.483,0.709-0.874
						c-0.787-0.985-2.536-2.382-6.039-2.153c-3.96,0.258-5.554,1.829-6.188,2.927C299.85,212.759,300.377,213.237,301.017,213.121z"
						/>
				</g>
				<g>
					<path style="fill:#263238;" d="M331.099,222.339c0,1.508,1.223,2.731,2.731,2.731c1.508,0,2.731-1.223,2.731-2.731
						c0-1.508-1.223-2.731-2.731-2.731C332.321,219.608,331.099,220.831,331.099,222.339z"/>
					<path style="fill:#263238;" d="M341.153,219.608c0.122-1.154-0.608-2.325-1.598-3.042c-1.013-0.71-2.235-1.006-3.387-1.053
						c-0.57-0.048-1.219,0.027-1.817,0.173c-0.602,0.181-1.183,0.452-1.673,0.842c-0.968,0.787-1.576,1.93-1.566,3.08
						c0.748-0.847,1.548-1.442,2.367-1.807c0.837-0.347,1.669-0.465,2.622-0.424c0.965,0.024,1.892,0.134,2.754,0.445
						C339.707,218.138,340.528,218.675,341.153,219.608z"/>
					<path style="fill:#263238;" d="M341.365,213.121c-1.82-0.332-5.471-0.827-10.61-0.709c-0.615,0.014-1.022-0.483-0.709-0.874
						c0.787-0.985,2.536-2.382,6.039-2.153c3.96,0.258,5.554,1.829,6.188,2.927C342.531,212.759,342.005,213.237,341.365,213.121z"
						/>
				</g>
			</g>
			<g>
				<path style="fill:#263238;" d="M322.667,220.267c0.969,2.054,1.806,4.151,2.597,6.262c0.799,2.109,1.52,4.243,2.226,6.382
					l0.505,1.612c0.213,0.638,0.234,1.405,0.013,2.068c-0.429,1.343-1.78,2.318-3.154,2.249c-2.268-0.098-4.509-0.254-6.765-0.545
					c2.249-0.293,4.513-0.443,6.75-0.55c0.9-0.067,1.688-0.708,1.899-1.544c0.103-0.415,0.105-0.827-0.048-1.255l-0.534-1.603
					c-0.679-2.148-1.344-4.3-1.93-6.478C323.631,224.69,323.083,222.5,322.667,220.267z"/>
			</g>
			<path style="fill:#DD8762;" d="M287.188,218.735c-1.535,0.626-2.882,1.625-3.806,2.89c-0.947,1.259-1.332,2.831-1.334,4.394
				c-0.03,1.578,0.377,3.143,1.266,4.424c0.904,1.27,2.295,2.227,3.874,2.73c-1.653-0.144-3.325-0.925-4.45-2.281
				c-1.137-1.35-1.646-3.154-1.625-4.874c0.012-1.721,0.515-3.54,1.7-4.847C283.946,219.842,285.55,219.013,287.188,218.735z"/>
			<path style="fill:#DD8762;" d="M356.352,233.174c1.535-0.626,2.882-1.625,3.806-2.89c0.947-1.259,1.332-2.831,1.334-4.394
				c0.03-1.578-0.377-3.143-1.266-4.424c-0.904-1.27-2.295-2.227-3.874-2.73c1.653,0.144,3.325,0.925,4.451,2.281
				c1.137,1.35,1.645,3.154,1.625,4.874c-0.012,1.721-0.515,3.54-1.7,4.847C359.594,232.068,357.99,232.897,356.352,233.174z"/>
		</g>
		<g>
			<g>
				<path style="fill:#455A64;" d="M321.079,199.158c1.607,1.077,3.204,2.154,4.866,3.119c1.643,0.989,3.324,1.912,5.046,2.679
					c0.863,0.376,1.743,0.701,2.621,0.928c0.872,0.222,1.778,0.305,2.486,0.098c0.334-0.129,0.629-0.282,0.832-0.554
					c0.207-0.287,0.363-0.586,0.379-0.938c0.074-0.705-0.222-1.555-0.636-2.337c-0.825-1.597-2.053-3.069-3.32-4.468
					c-1.26-1.419-2.645-2.741-4.028-4.066c-2.803-2.614-5.703-5.153-8.659-7.645c3.3,2.021,6.464,4.269,9.437,6.77
					c1.497,1.24,2.925,2.565,4.29,3.973c1.344,1.427,2.638,2.93,3.614,4.752c0.453,0.917,0.878,1.957,0.756,3.188
					c-0.048,0.615-0.34,1.219-0.715,1.688c-0.392,0.501-0.98,0.827-1.554,0.996c-1.171,0.285-2.247,0.081-3.224-0.193
					c-0.983-0.284-1.898-0.688-2.776-1.139C326.99,204.193,323.923,201.778,321.079,199.158z"/>
			</g>
			<g>
				<path style="fill:#455A64;" d="M333.8,197.119c1.249,0.763,2.515,1.368,3.82,1.792c1.305,0.406,2.634,0.681,3.976,0.654
					c0.334,0.042,0.668-0.026,1.003-0.032c0.336-0.008,0.67-0.044,1.001-0.114c0.333-0.055,0.671-0.095,1.005-0.161
					c0.326-0.099,0.657-0.184,0.993-0.265c0.341-0.066,0.665-0.187,0.99-0.312l0.997-0.346c0.659-0.257,1.297-0.575,2.003-0.817
					c-0.514,0.515-1.064,1.011-1.651,1.464c-0.632,0.373-1.229,0.85-1.936,1.11c-1.352,0.675-2.895,0.937-4.422,0.972
					c-1.537-0.003-3.064-0.393-4.41-1.077C335.826,199.311,334.627,198.341,333.8,197.119z"/>
			</g>
			<g>
				<path style="fill:#455A64;" d="M314.231,190.376c1.104,0.864,2.053,1.884,2.914,2.971c0.87,1.083,1.62,2.261,2.274,3.503
					c0.62,1.257,1.159,2.586,1.368,4.025c0.112,0.713,0.132,1.456,0,2.182c-0.142,0.719-0.446,1.432-0.969,1.911
					c0.478-1.327,0.209-2.606-0.172-3.834c-0.404-1.227-0.953-2.425-1.562-3.602C316.883,195.157,315.477,192.867,314.231,190.376z"
					/>
			</g>
			<g>
				<path style="fill:#455A64;" d="M333.402,165.759c1.195-0.162,2.404-0.147,3.611-0.138c1.204,0.065,2.409,0.17,3.607,0.339
					c2.395,0.335,4.761,0.912,7.046,1.719c2.275,0.825,4.514,1.783,6.581,3.045c1.057,0.587,2.043,1.29,3.039,1.968
					c0.974,0.711,1.89,1.5,2.802,2.277c-2.053-1.256-4.064-2.535-6.209-3.568c-2.115-1.082-4.31-1.99-6.543-2.777
					c-2.227-0.813-4.529-1.401-6.849-1.908C338.162,166.229,335.8,165.887,333.402,165.759z"/>
			</g>
			<g>
				<path style="fill:#455A64;" d="M358.96,189.494c-1.701,0.71-3.577,0.907-5.412,0.93c-1.847,0.019-3.681-0.237-5.48-0.615
					c-1.795-0.403-3.541-0.986-5.222-1.708c-0.844-0.351-1.65-0.79-2.462-1.2c-0.788-0.464-1.568-0.938-2.316-1.461
					c0.893,0.224,1.747,0.514,2.605,0.784l2.572,0.777c0.867,0.217,1.702,0.524,2.571,0.711c0.853,0.242,1.713,0.45,2.578,0.633
					c1.723,0.392,3.461,0.698,5.217,0.914C355.37,189.45,357.141,189.592,358.96,189.494z"/>
			</g>
			<g>
				<path style="fill:#455A64;" d="M302.389,200.33c-1.097-0.84-1.962-1.96-2.694-3.127c-0.741-1.172-1.315-2.435-1.814-3.719
					c-0.494-1.289-0.859-2.619-1.147-3.962c-0.139-0.672-0.236-1.353-0.34-2.029c-0.051-0.687-0.134-1.366-0.153-2.053
					c0.438,1.303,0.843,2.596,1.248,3.883c0.435,1.277,0.831,2.561,1.327,3.806c0.467,1.255,0.982,2.491,1.56,3.698
					C300.975,198.022,301.577,199.227,302.389,200.33z"/>
			</g>
		</g>
	</g>
	<g>
		<path style="fill:#455A64;" d="M378.43,384.239H262.902c-3.703,0-6.812-2.788-7.215-6.469l-6.412-58.6
			c-0.47-4.295,2.894-8.048,7.215-8.048h128.351c4.321,0,7.685,3.752,7.215,8.048l-6.412,58.6
			C385.243,381.451,382.133,384.239,378.43,384.239z"/>
		<path style="fill:#263238;" d="M391.797,316.325c-0.882-2.98-3.631-5.203-6.955-5.203H256.491c-3.324,0-6.074,2.224-6.955,5.203
			H391.797z"/>
		<path style="fill:#E0E0E0;" d="M326.968,350.996c0,3.481-2.822,6.302-6.302,6.302s-6.302-2.822-6.302-6.302
			c0-3.48,2.822-6.302,6.302-6.302S326.968,347.516,326.968,350.996z"/>
	</g>
	<g>
		<g>
			<g>
				<rect x="246.795" y="115.761" style="fill:#6695FF;" width="64.599" height="36.654"/>
				<g>
					<g>
						
							<ellipse transform="matrix(0.9175 -0.3977 0.3977 0.9175 -30.1016 122.0119)" style="fill:#244A96;" cx="279.095" cy="133.575" rx="9.674" ry="9.674"/>
					</g>
					<g>
						<path style="fill:#F0F0F0;" d="M277.354,131.498v4.514c0,0.789,0.905,1.235,1.531,0.755l2.998-2.3
							c0.502-0.385,0.496-1.145-0.014-1.521l-2.998-2.214C278.243,130.269,277.354,130.717,277.354,131.498z"/>
					</g>
				</g>
				<g>
					<path style="fill:#244A96;" d="M305.036,147.997h-53.783c-0.41,0-0.743-0.332-0.743-0.743l0,0c0-0.41,0.333-0.742,0.743-0.742
						h53.783c0.41,0,0.742,0.332,0.742,0.742l0,0C305.778,147.664,305.446,147.997,305.036,147.997z"/>
					<g>
						<path style="fill:#F0F0F0;" d="M305.036,146.512H267.55v1.485h37.486c0.41,0,0.742-0.332,0.742-0.742v0
							C305.778,146.844,305.446,146.512,305.036,146.512z"/>
					</g>
					<path style="fill:#244A96;" d="M267.47,146.512h-16.217c-0.41,0-0.743,0.332-0.743,0.742v0c0,0.41,0.333,0.742,0.743,0.742
						h16.217V146.512z"/>
					<g>
						<path style="fill:#244A96;" d="M269.421,147.254c0,1.022-0.829,1.85-1.85,1.85c-1.022,0-1.85-0.829-1.85-1.85
							s0.828-1.85,1.85-1.85C268.592,145.404,269.421,146.232,269.421,147.254z"/>
						<g>
							<path style="fill:#8CB0FF;" d="M268.452,147.254c0,0.487-0.395,0.881-0.881,0.881c-0.487,0-0.881-0.395-0.881-0.881
								c0-0.487,0.395-0.881,0.881-0.881C268.057,146.373,268.452,146.768,268.452,147.254z"/>
						</g>
					</g>
				</g>
			</g>
			<g>
				<path style="fill:#6695FF;" d="M359.423,341.202v21.032c0,1.818,1.474,3.292,3.292,3.292h38.253
					c0.723,0,1.425,0.238,1.999,0.677l8.402,6.423c2.166,1.656,5.291,0.111,5.291-2.615v-4.484v-15.429v-8.895
					c0-1.818-1.474-3.292-3.292-3.292h-50.653C360.897,337.911,359.423,339.384,359.423,341.202z"/>
				<g>
					<g>
						<circle style="fill:#F0F0F0;" cx="379.266" cy="352.134" r="2.192"/>
					</g>
					<g>
						<path style="fill:#F0F0F0;" d="M390.982,352.134c0,1.211-0.981,2.192-2.192,2.192c-1.211,0-2.192-0.981-2.192-2.192
							c0-1.211,0.982-2.192,2.192-2.192C390.001,349.942,390.982,350.923,390.982,352.134z"/>
					</g>
					<g>
						<path style="fill:#F0F0F0;" d="M400.507,352.134c0,1.211-0.982,2.192-2.192,2.192c-1.211,0-2.192-0.981-2.192-2.192
							c0-1.211,0.981-2.192,2.192-2.192C399.525,349.942,400.507,350.923,400.507,352.134z"/>
					</g>
				</g>
			</g>
			<g>
				<path style="fill:#6695FF;" d="M438.657,175.363v21.833c0,1.597-1.294,2.891-2.891,2.891h-43.374
					c-0.635,0-1.252,0.209-1.756,0.594l-9.153,6.998c-1.902,1.454-4.647,0.098-4.647-2.297v-5.295v-15.429v-9.296
					c0-1.597,1.294-2.891,2.891-2.891h56.039C437.362,172.472,438.657,173.767,438.657,175.363z"/>
				<g>
					<g>
						<path style="fill:#355EAF;" d="M393.719,186.176c0,3.136-2.542,5.678-5.678,5.678s-5.678-2.542-5.678-5.678
							c0-3.136,2.542-5.678,5.678-5.678S393.719,183.04,393.719,186.176z"/>
					</g>
					<g>
						<g>
							<g>
								<path style="fill:#FFFFFF;" d="M397.83,184.362l0.936-2.76h1.512l-0.744,2.76H397.83z M399.954,184.362l0.937-2.76h1.512
									l-0.744,2.76H399.954z"/>
							</g>
						</g>
						<g>
							<g>
								<path style="fill:#FFFFFF;" d="M426.175,191.306l0.937-2.76h1.512l-0.744,2.76H426.175z M428.299,191.306l0.936-2.76h1.512
									l-0.744,2.76H428.299z"/>
							</g>
						</g>
						<g>
							<rect x="403.453" y="182.547" style="fill:#244A96;" width="29.314" height="1.309"/>
						</g>
						<g>
							<rect x="397.83" y="185.726" style="fill:#244A96;" width="33.303" height="1.309"/>
						</g>
						<g>
							<rect x="397.83" y="188.906" style="fill:#244A96;" width="27.45" height="1.309"/>
						</g>
					</g>
				</g>
			</g>
			<g>
				<rect x="186.327" y="225.382" style="fill:#6695FF;" width="71.606" height="40.63"/>
				<g>
					<rect x="189.703" y="229.022" style="fill:#355EAF;" width="64.302" height="33.172"/>
				</g>
				<g>
					<path style="fill:#244A96;" d="M189.703,262.195l18.221-24.457c1.981-2.659,5.957-2.679,7.966-0.041l13.373,17.568l7.369-6.929
						c2.162-2.033,5.609-1.739,7.396,0.63l9.977,13.228H189.703z"/>
				</g>
				<g>
					<path style="fill:#FFFFFF;" d="M235.151,239.195c0,2.929-2.375,5.304-5.304,5.304c-2.929,0-5.304-2.375-5.304-5.304
						c0-2.929,2.375-5.304,5.304-5.304C232.777,233.891,235.151,236.265,235.151,239.195z"/>
				</g>
			</g>
		</g>
	</g>
</g>
</svg>
